<?xml version="1.0" encoding="UTF-8"?>
<svg xmlns="http://www.w3.org/2000/svg" xmlns:xlink="http://www.w3.org/1999/xlink" version="1.1" viewBox="0 0 156 167">
  <defs>
    <style>
      .cls-1 {
        fill: #00cfff;
      }

      .cls-1, .cls-2, .cls-3, .cls-4, .cls-5, .cls-6, .cls-7, .cls-8, .cls-9, .cls-10, .cls-11, .cls-12, .cls-13 {
        stroke-width: 0px;
      }

      .cls-2 {
        fill: #cccbcb;
      }

      .cls-14, .cls-15, .cls-16, .cls-17, .cls-18, .cls-19, .cls-20 {
        stroke: #000;
        stroke-miterlimit: 10;
      }

      .cls-14, .cls-15, .cls-16, .cls-17, .cls-19 {
        stroke-width: 1px;
      }

      .cls-14, .cls-18, .cls-11 {
        fill: #fff;
      }

      .cls-21 {
        clip-path: url(#clippath);
      }

      .cls-3, .cls-22, .cls-20 {
        fill: none;
      }

      .cls-4 {
        fill: url(#linear-gradient);
      }

      .cls-22 {
        mix-blend-mode: hard-light;
        stroke: #57c3ff;
        stroke-linecap: round;
        stroke-linejoin: round;
        stroke-width: 7.4px;
      }

      .cls-23, .cls-12 {
        fill: #271066;
      }

      .cls-15, .cls-13 {
        fill: #396dff;
      }

      .cls-16, .cls-10 {
        fill: #ffa015;
      }

      .cls-17, .cls-8 {
        fill: #55cfff;
      }

      .cls-24 {
        clip-path: url(#clippath-1);
      }

      .cls-25 {
        clip-path: url(#clippath-3);
      }

      .cls-26 {
        clip-path: url(#clippath-2);
      }

      .cls-5 {
        fill: #000;
      }

      .cls-6 {
        fill: #ff3194;
      }

      .cls-7 {
        fill: #001372;
      }

      .cls-18 {
        stroke-width: 1.1px;
      }

      .cls-9, .cls-19 {
        fill: #ff2c95;
      }

      .cls-27 {
        isolation: isolate;
      }

      .cls-20 {
        stroke-width: .9px;
      }
    </style>
    <clipPath id="clippath">
      <rect class="cls-3" x="20" y="3.8" width="100" height="120"/>
    </clipPath>
    <clipPath id="clippath-1">
      <path class="cls-12" d="M43.5,106.9s-.6,2.9-1.2,6.6-1.2,10.3-1.5,13.5c3.6-.8,13.2-1.8,13.2-1.8,0,0,2-6.2,2.7-8.4s1.7-6.6,1.9-8.3c-2.4.6-8.4,2.2-15.1-1.6Z"/>
    </clipPath>
    <clipPath id="clippath-2">
      <path class="cls-3" d="M71,115.9s-.1,6,0,8.9c2.5.6,13.1,2.5,13.1,2.5,0,0,1.2-7.3,1.1-10.5-2.4.6-7.7,2.3-14.3-1Z"/>
    </clipPath>
    <clipPath id="clippath-3">
      <path class="cls-3" d="M428.4-737.1h146.1c53.3,0,96.5,43.2,96.5,96.5v146.1c0,53.3-43.2,96.5-96.5,96.5h-146.1c-53.3,0-96.5-43.2-96.5-96.5v-146.1c0-53.3,43.2-96.5,96.5-96.5Z"/>
    </clipPath>
    <linearGradient id="linear-gradient" x1="-3800.2" y1="-12054.8" x2="-2750.2" y2="-9719.1" gradientTransform="translate(3807.3 9782.2)" gradientUnits="userSpaceOnUse">
      <stop offset="0" stop-color="#415fff"/>
      <stop offset=".3" stop-color="#4100ff"/>
      <stop offset=".3" stop-color="#3f00f6"/>
      <stop offset=".7" stop-color="#2e0598"/>
      <stop offset=".9" stop-color="#23075c"/>
      <stop offset="1" stop-color="#1f0946"/>
    </linearGradient>
  </defs>
  <g class="cls-27">
    <g id="Layer_2" data-name="Layer 2">
      <g>
        <g class="cls-21">
          <g>
            <g>
              <path class="cls-16" d="M83,106.5s7.1-3.2,11.9,1.3c4.8,4.6,3.9,9.5,8.3,11.1,0,0-15.3,6.1-22-6.2l1.8-6.2Z"/>
              <path class="cls-17" d="M92.2,115.1c.9,2.3,2,4,3.4,5.3,4.3-.2,7.6-1.5,7.6-1.5-4.4-1.6-3.5-6.5-8.3-11.1-4.8-4.6-11.9-1.3-11.9-1.3,0,0,6.8,2.7,9.2,8.6Z"/>
            </g>
            <path class="cls-19" d="M54.9,38.2s9.3-15.1,21.5-8.3c18.2,10.2,24.9,67.3,32.8,73.1,0,0-20.3-6.1-22.8-26-1.9-15.2-23.8-38.5-31.5-38.9Z"/>
            <path class="cls-15" d="M84.3,68.8s16,15.1,31.7,5.5c0,0-15.5-2.6-19.4-8.9-3.9-6.3-16.3-17.2-29.5-18-13.3-.8,17.2,21.5,17.2,21.5Z"/>
            <path class="cls-16" d="M84.1,57.8s11.4,12,25,6.3c0,0-9.1-.7-13-7-3.9-6.3-16-19.9-29.2-20.7-13.3-.8,17.2,21.5,17.2,21.5Z"/>
            <g>
              <g>
                <path class="cls-11" d="M54.2,94.6c-9.3-2.7-17.7,10.6-21.2,3.4-4.4-9.1,17.7-16.7,17.7-16.7l9.7-1.2,25,5.6-3.8,19.2-6.8,8.5s7.6,2-4.8,6.4-19.1-2.7-19.1-2.7l5-20.3-1.8-2.3Z"/>
                <path class="cls-5" d="M36.1,101c-.4,0-.8,0-1.1-.2-1-.3-1.9-1.2-2.5-2.6-.9-1.9-1-3.8-.2-5.6,2.8-6.4,17.7-11.8,18.3-12,0,0,0,0,.1,0l9.7-1.2c.4,0,.7.2.7.6,0,.4-.2.7-.6.7l-9.6,1.1c-.9.3-15,5.6-17.4,11.2-.7,1.5-.6,3,.1,4.6.5,1,1.1,1.7,1.8,1.9,1.4.4,3.3-.5,5.5-1.7,3.3-1.7,10.2-5.3,14.9-3.9.3,0,.5.5.4.8,0,.3-.5.5-.8.4-4.2-1.2-10.7,2.1-13.9,3.8-2,1-3.7,2-5.3,2Z"/>
              </g>
              <g>
                <path class="cls-11" d="M93.6,78.4s4.7,2,2.8,5.5c-1.9,3.6-6.8,0-6.3-2.1"/>
                <path class="cls-5" d="M92.9,85.9c0,0-.1,0-.2,0-1.8-.7-3.5-2.6-3.2-4.1,0-.3.4-.6.8-.5.3,0,.6.4.5.8-.2.7,1,2.1,2.4,2.6.9.3,2,.4,2.7-1,.4-.8.5-1.4.2-2.1-.5-1.3-2.1-2.3-2.8-2.5-.3-.1-.5-.5-.3-.8.1-.3.5-.5.8-.3.1,0,2.7,1.1,3.5,3.3.4,1,.3,2.1-.3,3.1-.8,1.6-2.4,2.2-4.1,1.6Z"/>
              </g>
              <g>
                <path class="cls-11" d="M63.8,113.1s10.3-9.3,16.7-7.5c6.5,1.7,5.8,15.8,4.3,20.5l-14.1-1s-.9-8.2-.1-11.9"/>
                <path class="cls-5" d="M85,128.4c-.2.2-.5.2-.8.2l-13.4-2.9c-.3,0-.5-.2-.6-.5,0-.2-.9-8.4-.1-12.2,0-.3.4-.6.8-.5.3,0,.6.4.5.8-.6,2.8-.3,9.9,0,11.1l12.7,2.9c.8-3.1,1.9-14.7,0-18.3-.8-1.5-2.1-2.5-3.6-2.9-6-1.6-16.1,7.3-16.1,7.4-.3.2-.7.2-.9,0-.2-.3-.2-.7,0-.9.3-.3,10.6-9.5,17.3-7.7,1.9.5,3.4,1.7,4.4,3.6,2.3,4.2,1,16.5,0,19.8,0,0,0,.1-.2.2Z"/>
              </g>
              <g>
                <path class="cls-11" d="M40.5,124.9s2.5-32.5,11.7-31.6c10.3,1,7.2,17.4,3.8,27.5-1.2,3.4-1.6,6.3-2.6,7.4l-12.9-3.3Z"/>
                <path class="cls-5" d="M53.4,128.8c0,0-.2,0-.2,0l-13.2-.8c-.2,0-.4-.3-.4-.6,0-.4,1.6-26.5,7.9-32.9s3.2-2.2,5.2-2.2c3,0,5.2,1.7,6.5,4.7,1.1,2.6,1.4,6.2.9,9.9-.5,3.5-4.8,20.1-6.2,21.6-.1.1-.3.2-.5.2ZM40.8,127l12,.3c1.9-2.4,6.1-16.7,6.3-24.2s-.6-4.2-1.2-5.5c-1.1-2.6-2.9-3.9-5.3-3.9-1.7,0-3.1.5-4.3,1.8-5.6,5.9-7.5,29.6-7.5,31.5Z"/>
              </g>
              <path class="cls-14" d="M81.7,46.8c.2-.2.3-.4.5-.6,2.8-4,4.1-12.6.6-15.1-3.5-2.4-10.5,2.2-13.3,6.2-.1.2-.2.3-.3.5-2.4-.7-4.8-.9-7.2-.5-2.4.4-4.6,1.5-6.6,2.9-.1-.1-.3-.2-.4-.3-4-2.8-12.2-4.7-14.7-1.2-2.4,3.5,1.8,11.1,5.8,13.9.2.1.4.3.7.4-2.2,6.2-2.9,13.3-1.7,19.8,2.7,15,14,20.1,26.4,17.9,12.4-2.2,21.3-10.9,18.6-25.9-1.2-6.5-4.3-13-8.5-18Z"/>
              <path class="cls-16" d="M56.5,42s1.4-29.9,5.5-32.1c0,0,3.9-.8,7.1,34.6l-12.6-2.5Z"/>
              <path class="cls-5" d="M58.7,22.7c-.4,0-.2-.5-.4-1-.1-.5.1-1,.6-1.2,0,0,4-1.3,5.4-4.4.2-.3.1.1.6.4.4.3.5.9.3,1.3-2.2,3.6-6.4,4.8-6.5,4.8-.7.3,0,0,0,0Z"/>
              <path class="cls-5" d="M57.7,30.5c-.5,0,0-1-.1-1.5,0-.5.4-1,.8-1,0,0,3.7-.5,7.2-4.8.3-.4.6,0,.9.3.4.4.4,1,0,1.4-3.5,4.4-8.9,5.6-9,5.6Z"/>
              <g>
                <path class="cls-8" d="M52.4,73.9c-5,0-9-2.8-10.4-7.2-.8-2.7-1.4-4.9-.2-6.8,1.2-2,4.4-3.4,9.7-4.3,3.1-.5,5.4-.8,7.2-.8s3.5.4,4.3,1.3h.1c0,.1,5-.8,5-.8v-.2c.8-1.9,3.9-3.2,10.7-4.4,2.1-.4,4-.6,5.5-.6,6.8,0,7,3.8,7.2,7.7.3,5.3-3.7,9.9-9.5,11-.6.1-1.2.2-1.8.2h0c-5.3,0-10.8-4.2-11.6-8.7v-.3c0,0-.4,0-.4,0l-3.9.7v.3c.9,4.9-3.4,11.7-9.6,12.8-.8.1-1.6.2-2.4.2Z"/>
                <path class="cls-5" d="M84.3,50.4c6,0,6.6,2.8,6.9,7.4.3,5.2-3.6,9.6-9.2,10.6-.6,0-1.1.2-1.7.2-5.1,0-10.5-4-11.3-8.4h0c0,0-.1-.8-.1-.8h-.7c0,.1-3.5.8-3.5.8h-.7c0,.1.1.8.1.8h0c.8,4.7-3.3,11.3-9.4,12.4-.8.1-1.5.2-2.3.2-4.8,0-8.8-2.7-10-7-.8-2.6-1.3-4.8-.2-6.5,1.2-1.9,4.3-3.3,9.5-4.2,3-.5,5.4-.8,7.1-.8,2.7,0,3.6.6,4.1,1.1l.3.3h.4c0,0,4.7-.9,4.7-.9h.4c0,0,.1-.4.1-.4.7-1.7,3.8-3,10.3-4.2,2.1-.4,3.9-.6,5.5-.6M84.3,49.7c-1.5,0-3.4.2-5.6.6-7.5,1.4-10.1,2.7-10.9,4.6l-4.7.8c-.8-.9-2.1-1.4-4.6-1.4s-4.1.3-7.2.8c-12.3,2.1-11.3,6.6-9.8,11.6,1.3,4.4,5.5,7.5,10.7,7.5s1.6,0,2.4-.2c6.2-1.1,10.8-7.9,9.9-13.1,0,0,0,0,0,0l3.5-.6s0,0,0,0c.8,4.6,6.4,9,12,9s1.2,0,1.8-.2c6.2-1.1,10.1-6,9.8-11.3-.3-4.3-.7-8-7.6-8h0Z"/>
              </g>
              <path class="cls-5" d="M62.2,60.7c.6,3.6-1.8,9.8-7.5,11-6.8,1.4-10.2-4.2-10.8-7.7-.6-3.6,3.2-5.6,8.2-6.6,5.4-1.1,9.3-.5,10,3.4Z"/>
              <path class="cls-5" d="M70.5,59.2c.6,3.6,5.1,8.6,10.8,7.7,6.8-1,8.1-7.4,7.5-11-.6-3.6-5-4.2-10-3.4-5.4.8-8.9,2.8-8.2,6.6Z"/>
              <path class="cls-2" d="M52.7,71.9v-14.7c-.2,0-.3,0-.5.1-.4,0-.8.2-1.2.3v14.1c.5.1,1.1.2,1.8.2Z"/>
              <path class="cls-2" d="M54.2,57v14.8c.2,0,.3,0,.5,0,.4,0,.8-.2,1.2-.4v-14.5c-.6,0-1.1,0-1.8.1Z"/>
              <path class="cls-2" d="M79.8,67v-14.6c-.3,0-.7,0-1.1.1-.2,0-.5,0-.7.1v14.1c.6.1,1.1.2,1.8.2Z"/>
              <path class="cls-2" d="M81.3,52.3v14.6c.6,0,1.2-.2,1.8-.4v-14.2c-.6,0-1.1,0-1.8,0Z"/>
              <g>
                <path class="cls-11" d="M80.3,92.1s5.7-10.7,11.8-15c0,0,9.5-.9,10.2,6.9.6,7.3-13.3,20.9-23.3,18.8"/>
                <path class="cls-5" d="M81.1,103.7c-.8,0-1.6,0-2.3-.2-.3,0-.6-.4-.5-.8,0-.3.4-.6.8-.5,4.3.9,10.1-1.3,15.3-5.9,4.6-4.1,7.5-9,7.3-12.2-.2-1.9-.9-3.4-2.2-4.4-2.5-2.1-6.3-2-7.1-1.9-5.8,4.2-11.4,14.6-11.5,14.7-.2.3-.6.4-.9.3-.3-.2-.4-.6-.3-.9.2-.4,5.9-10.9,12-15.2,0,0,.2-.1.3-.1.2,0,5-.4,8.2,2.2,1.5,1.3,2.4,3.1,2.6,5.3.3,3.7-2.7,8.9-7.7,13.3-4.7,4.1-9.8,6.4-14.1,6.4Z"/>
              </g>
              <g>
                <path class="cls-11" d="M87.1,85.2s-4.6-6.9,5.2-9.2c0,0-.5-6.4,4.4-5.6,4.9.9,1.9,7.1,1.9,7.1,0,0,4-7.3,7.5-3.4,3.5,3.9-2.4,7.1-2.4,7.1,0,0,2.6,4,.7,7.4-1.9,3.4-6.4,5.2-9.3,3.3"/>
                <path class="cls-5" d="M96,93c-.4-.1-.8-.3-1.2-.6-.3-.2-.4-.6-.2-.9.2-.3.6-.4.9-.2,1,.7,2.3.8,3.7.5,1.9-.5,3.7-1.9,4.7-3.6,1.7-3-.7-6.7-.7-6.8,0-.1-.1-.3,0-.5,0-.2.2-.3.3-.4,0,0,2.8-1.5,3.1-3.6.1-.9-.1-1.7-.9-2.5-.6-.7-1.3-1-2-.9-1.9.2-3.9,3.1-4.5,4.2-.2.3-.5.4-.8.3-.3-.2-.4-.5-.3-.8.4-.9,1.3-3.4.6-4.9-.3-.7-1-1.1-2-1.3-1.1-.2-1.9,0-2.4.5-1.5,1.3-1.3,4.3-1.3,4.4,0,.3-.2.6-.5.7-3,.7-4.9,1.9-5.5,3.5-.9,2.2.7,4.7.7,4.7.2.3.1.7-.2.9-.3.2-.7.1-.9-.2,0-.1-2-3-.8-5.9.8-2,2.8-3.3,5.9-4.1,0-1.1.2-3.5,1.7-4.9.9-.8,2.1-1.1,3.5-.8,1.4.2,2.4.9,2.9,1.9.4.8.5,1.7.4,2.6.9-1,2.1-1.9,3.4-2,1.1-.1,2.2.3,3.1,1.3,1,1.1,1.4,2.4,1.2,3.6-.3,2-2.2,3.5-3.2,4.1.7,1.3,2,4.6.4,7.5-1.1,2-3.2,3.6-5.5,4.2-1.2.3-2.4.3-3.5,0Z"/>
              </g>
              <g>
                <path class="cls-5" d="M62.8,85.1c.7.5,1.1,1.2.8,1.5-.3.4-1,.3-1.7-.2-.7-.5-1.1-1.2-.8-1.5.3-.4,1-.3,1.7.2Z"/>
                <ellipse class="cls-5" cx="80.5" cy="82.2" rx="1.5" ry=".8" transform="translate(-32.6 103.4) rotate(-56.2)"/>
              </g>
              <path class="cls-20" d="M43.1,105.9s6.7,5.4,16,1.9"/>
              <path class="cls-20" d="M70.2,114.9s6.6,5.1,15.8,1.3"/>
              <path class="cls-7" d="M43.5,106.7s-.6,3-1.2,6.7-1.5,9.8-1.5,13.5c3.6-.8,13.6-3.1,13.6-3.1,0,0,1.5-4.6,2.1-6.5.8-2.9,1.8-6.8,1.9-8.6-2.4.6-8.3,1.8-14.9-2.1Z"/>
              <g>
                <path class="cls-23" d="M43.5,106.9s-.6,2.9-1.2,6.6-1.2,10.3-1.5,13.5c3.6-.8,13.2-1.8,13.2-1.8,0,0,2-6.2,2.7-8.4s1.7-6.6,1.9-8.3c-2.4.6-8.4,2.2-15.1-1.6Z"/>
                <g class="cls-24">
                  <g>
                    <path class="cls-1" d="M49.2,112c-2.5-.4-5.1-1.3-5.1-1.3l-.4-1.3.9-.7s2.1,1,4.8,1.4l-.2,2Z"/>
                    <path class="cls-13" d="M50.1,115.7c-2.6-.1-4.9-.6-4.9-.6l.3-2.1s2.1.5,4.9.7l.5,1.1-.9.8Z"/>
                    <path class="cls-10" d="M43.1,122.2c-2.6-.1-4.9-.6-4.9-.6l.3-2.1s2.2.5,4.9.6l.5,1.1-.9.9Z"/>
                    <path class="cls-10" d="M43.1,114.6c-2.6-.3-4.8-1.1-4.8-1.1l.4-2.3s2,.9,4.9,1.5l.5,1.2-.9.8Z"/>
                    <path class="cls-6" d="M45.9,118.9c-2.6-.1-4.9-.7-4.9-.7l.3-2.1s2.3.6,4.9.7l.5,1.1-.9.9Z"/>
                    <path class="cls-6" d="M47.5,126.3c-2.6,0-5.1-.4-5.1-.4l.2-2s2.4.3,5.1.3l.6,1.1-.8,1Z"/>
                    <path class="cls-1" d="M48.7,119.3c2.5.5,5,.4,5,.4l.2-2.1s-2.6,0-5-.4l-.8,1,.6,1.1Z"/>
                    <path class="cls-10" d="M53.4,116.1c2.6.2,5,0,5,0v-2.1c0,0-2.9.3-5.1.2-.3.5-.7.8-.7.8l.7,1.1Z"/>
                    <path class="cls-13" d="M55.9,119.7c2.6.2,5-.2,5-.2v-2.1c0,0-2.4.3-5.1.2l-.7,1.1.7,1Z"/>
                    <path class="cls-13" d="M46.4,122.6c2.5.6,7.5.6,7.5.6l.2-1.9s-4.9-.2-7.5-.7l-.8,1,.6,1.1Z"/>
                    <path class="cls-6" d="M56.2,112c-2.5.4-5.1.2-5.1.2v-2c0,0,2.7.2,5.1-.3l.7,1-.7,1.1Z"/>
                  </g>
                </g>
              </g>
              <path class="cls-12" d="M71,115.8s-.1,6.1,0,9.1c2.5.6,13.1,2.5,13.1,2.5,0,0,1.2-7.3,1.1-10.5-2.4.6-7.7,2.1-14.3-1.1Z"/>
              <g class="cls-26">
                <g>
                  <path class="cls-13" d="M79,120.6c-2.6,0-4.9-.6-4.9-.6l.2-2s2.1.7,4.9.6l.6,1.1-.8.8Z"/>
                  <path class="cls-10" d="M72.2,119.5c-2.5-.6-4.7-1.7-4.7-1.7l.7-2.2s1.8,1.1,4.6,2.1l.3,1.2-1,.6Z"/>
                  <path class="cls-10" d="M80.4,123.8c-2.6,0-5-.4-5-.4l.2-2.1s2.3.4,5,.4l.6,1.1-.8,1Z"/>
                  <path class="cls-9" d="M73.1,122.9c-2.6-.3-4.8-1.2-4.8-1.2l.5-2s2.2.8,4.8,1.2l.4,1.2-.9.9Z"/>
                  <path class="cls-9" d="M81.4,120.6c2.6,0,4.9-.6,4.9-.6l-.3-2.1s-2.7.6-4.9.7c-.3.6-.6.9-.6.9l.9,1.1Z"/>
                  <path class="cls-8" d="M83.2,123.8c2.6.2,5-.2,5-.2l-.2-2.4s-2.1.8-4.8.8l-.7,1.1.7.8Z"/>
                </g>
              </g>
            </g>
            <line class="cls-18" x1="81.3" y1="105.8" x2="82.2" y2="102.8"/>
            <path class="cls-15" d="M53.8,41.3s0-7,10.5-8.6c10.6-1.6,19.3,13.7,33,9,0,0-16.6,23.1-43.6-.4Z"/>
            <path class="cls-17" d="M64.5,38.3s6.5-3.9,13.2,1.5c6.7,5.4,20.3,12.1,26.5,11.7,0,0-12.1,6.8-29.2,4.7-17.1-2.1-14.8-16.2-10.6-17.9Z"/>
            <path class="cls-19" d="M58.8,34.8s7.4-1.8,12.2,5.4c4.8,7.2,13.5,17,19.6,18.5,0,0-11.4,3.5-27.1-3.6-15.7-7.1-9.2-19.9-4.7-20.3Z"/>
          </g>
        </g>
        <g>
          <polyline class="cls-22" points="122.3 157.2 136 143.5 122.7 130.2"/>
          <path class="cls-22" d="M27.5,127.5h62c4.4,0,8,3.6,8,8h0c0,4.4,3.6,8,8,8h30.3"/>
        </g>
      </g>
      <g class="cls-25">
        <rect class="cls-4" x="-80.4" y="-2433.9" width="1179" height="2556" transform="translate(1018.3 -2311.8) rotate(180)"/>
      </g>
    </g>
  </g>
</svg>